<?xml version="1.0" encoding="UTF-8" standalone="no"?>
<!-- Created with Inkscape (http://www.inkscape.org/) -->

<svg
   width="1330"
   height="504"
   viewBox="0 0 351.89582 133.35"
   version="1.1"
   id="svg5"
   inkscape:version="1.1.2 (b8e25be833, 2022-02-05)"
   sodipodi:docname="logo-fake-commerce.svg"
   xmlns:inkscape="http://www.inkscape.org/namespaces/inkscape"
   xmlns:sodipodi="http://sodipodi.sourceforge.net/DTD/sodipodi-0.dtd"
   xmlns="http://www.w3.org/2000/svg"
   xmlns:svg="http://www.w3.org/2000/svg">
  <sodipodi:namedview
     id="namedview7"
     pagecolor="#888888"
     bordercolor="#666666"
     borderopacity="1.0"
     inkscape:pageshadow="2"
     inkscape:pageopacity="0"
     inkscape:pagecheckerboard="true"
     inkscape:document-units="px"
     showgrid="false"
     units="px"
     inkscape:showpageshadow="false"
     inkscape:zoom="1.55"
     inkscape:cx="1255.4839"
     inkscape:cy="468.3871"
     inkscape:window-width="1366"
     inkscape:window-height="697"
     inkscape:window-x="-8"
     inkscape:window-y="-8"
     inkscape:window-maximized="1"
     inkscape:current-layer="layer1"
     showguides="true"
     inkscape:guide-bbox="true"
     width="1330px"
     borderlayer="false" />
  <defs
     id="defs2" />
  <g
     inkscape:label="Camada 1"
     inkscape:groupmode="layer"
     id="layer1">
    <g
       id="g13032"
       transform="translate(-0.29765372,0.52916664)">
      <ellipse
         style="fill:#e74c3c;fill-opacity:1;stroke:none;stroke-width:2.27678"
         id="path31"
         cx="66.972656"
         cy="66.145828"
         rx="66.145836"
         ry="66.145828" />
      <g
         aria-label="$"
         id="text1620"
         style="font-weight:bold;font-size:91.7222px;line-height:1.25;font-family:'Edu VIC WA NT Beginner';-inkscape-font-specification:'Edu VIC WA NT Beginner Bold';fill:#ecf0f1;stroke-width:0.264583">
        <path
           d="m 60.408782,97.931998 q -9.17222,0 -14.125219,-2.843388 -4.952998,-2.93511 -5.961943,-8.530165 -0.366888,-2.017888 0.8255,-3.577165 1.192389,-1.651 3.026833,-2.201333 2.10961,-0.642055 4.310943,0.183444 2.293055,0.733778 3.210277,3.210277 0.642055,1.742722 2.476499,2.568222 1.834444,0.733777 6.879165,0.733777 5.870221,0 9.722553,-1.192388 3.852333,-1.284111 4.58611,-4.952999 0.642056,-3.026832 -0.366889,-5.044721 -1.008944,-2.017888 -3.485443,-3.76061 -2.384777,-1.742722 -6.145387,-3.944054 -2.568222,-1.559278 -5.778499,-3.302 -3.118555,-1.742721 -5.870221,-3.944054 -2.751666,-2.293055 -4.219221,-5.228165 -1.467555,-2.935111 -0.8255,-6.879165 1.284111,-7.246054 7.704665,-10.364609 6.512276,-3.210277 17.794107,-3.210277 5.411609,0 8.988775,1.192389 3.668888,1.100666 5.778499,3.577166 2.10961,2.384777 2.93511,6.328831 0.366889,2.017889 -0.550333,3.577166 -0.8255,1.559277 -2.843388,2.201333 -2.4765,0.733777 -4.402666,-0.09172 -1.834444,-0.917222 -2.568221,-3.210277 -0.642056,-1.926167 -2.843389,-2.843389 -2.10961,-1.008944 -6.879164,-1.008944 -5.044721,0 -8.254998,0.733778 -3.118555,0.733777 -3.668888,3.393721 -0.366889,2.201333 1.559277,3.944055 2.017888,1.650999 5.228165,3.210277 3.210277,1.559277 6.328832,3.577165 2.659944,1.651 5.228165,3.485444 2.659944,1.742722 4.677833,4.127499 2.017888,2.384777 2.843388,5.778498 0.917222,3.393722 0,8.163276 -0.8255,4.58611 -3.393722,7.704665 -2.476499,3.118555 -6.053665,4.952999 Q 72.699556,96.281 68.572058,97.1065 64.444559,97.932 60.408782,97.932 Z M 78.844944,32.809237 66.645891,101.69261 q -0.366888,2.20133 -2.10961,3.39372 -1.742722,1.19239 -3.577166,1.19239 -2.017888,0 -3.577166,-1.55928 -1.467555,-1.46755 -1.008944,-4.1275 l 12.10733,-69.066814 q 0.458611,-2.384777 2.201333,-3.577165 1.742722,-1.192389 3.485444,-1.192389 2.10961,0 3.577165,1.651 1.559278,1.559277 1.100667,4.402665 z"
           id="path12994" />
      </g>
      <g
         aria-label="Fake"
         id="text4326"
         style="font-weight:bold;font-size:49.3889px;line-height:1.25;font-family:'Edu VIC WA NT Beginner';-inkscape-font-specification:'Edu VIC WA NT Beginner Bold';fill:#ecf0f1;stroke-width:0.264583">
        <path
           d="m 151.31952,58.836712 q -1.72861,0 -2.27189,-0.987778 -0.49389,-0.987778 -0.29633,-2.173112 l 5.72911,-32.646063 q 0.24694,-1.234723 0.93839,-1.778001 0.69144,-0.543278 2.07433,-0.543278 h 19.06412 q 1.3335,0 2.07433,0.740834 0.79023,0.691445 0.79023,1.926167 0,0.938389 -0.83962,1.778001 -0.79022,0.790222 -2.2225,0.790222 h -16.34772 l -5.28462,29.880285 q -0.19755,1.3335 -1.13594,2.173112 -0.889,0.839611 -2.27189,0.839611 z m 2.51883,-16.347726 0.889,-4.988279 h 17.28612 q 1.3335,0 2.07433,0.642055 0.74084,0.642056 0.74084,1.778001 0,1.086556 -0.74084,1.827389 -0.69144,0.740834 -2.12372,0.740834 z"
           id="path12932" />
        <path
           d="m 183.57049,59.083656 q -3.21028,0 -4.64256,-2.370667 -1.43228,-2.420056 -0.69144,-6.519335 0.64205,-3.654778 2.51883,-6.321779 1.92617,-2.667001 4.84011,-4.099279 2.91395,-1.481667 6.61812,-1.481667 h 1.38289 l -0.69145,5.136446 h -0.54328 q -3.30905,0 -5.48217,1.876778 -2.17311,1.827389 -2.71639,4.889501 -0.24694,1.679223 0,2.71639 0.29634,1.037167 0.98778,1.037167 0.93839,0 2.76578,-2.518834 1.87678,-2.568223 3.80295,-7.457724 l -0.34573,7.655279 q -1.92616,3.704168 -3.90172,5.580946 -1.92617,1.876778 -3.90172,1.876778 z m 8.54428,-0.246944 q -1.38289,0 -2.07434,-0.790223 -0.69144,-0.790222 -0.49388,-1.778 l 3.16088,-17.97756 h 2.81517 q 1.43228,0 1.97556,0.889 0.54328,0.889001 0.24694,2.370668 L 195.12749,56.6636 q -0.14817,0.642056 -0.79022,1.432278 -0.64206,0.740834 -2.2225,0.740834 z"
           id="path12934" />
        <path
           d="m 203.81989,58.836712 q -0.98778,0 -1.97556,-0.691445 -0.98777,-0.691444 -0.74083,-2.2225 l 5.82789,-32.991786 q 0.24695,-1.234722 1.08656,-1.728611 0.83961,-0.49389 1.778,-0.49389 1.28411,0 2.2225,0.790223 0.93839,0.740833 0.64205,2.173112 l -5.72911,32.596674 q -0.19755,1.234723 -1.18533,1.926167 -0.93839,0.642056 -1.92617,0.642056 z m 3.70417,-8.001002 1.23472,-7.704669 q 1.13595,-1.580444 2.32128,-2.765778 1.18533,-1.185334 2.667,-1.827389 1.48167,-0.691445 3.45722,-0.691445 1.87678,0 3.30906,1.135945 1.48167,1.086556 1.48167,2.765778 0,1.876778 -0.83962,3.358445 -0.79022,1.432279 -1.92616,2.469446 -1.13595,0.987778 -2.02495,1.531055 l 3.85234,5.679724 q 0.59266,0.790222 0.59266,1.580445 0,0.790222 -0.83961,1.629834 -0.79022,0.839611 -1.82739,0.839611 -0.79022,0 -1.53105,-0.395111 -0.74084,-0.395112 -1.23473,-1.086556 l -3.70416,-5.334001 q -0.49389,-0.790223 -0.98778,-1.531056 -0.49389,-0.740834 -0.49389,-1.38289 0,-0.592666 0.24694,-0.987778 0.29634,-0.395111 0.64206,-0.592666 2.02495,-1.135945 3.06211,-2.370668 1.03717,-1.234722 1.03717,-1.876778 0,-0.246944 -0.14817,-0.345722 -0.0988,-0.09878 -0.34572,-0.09878 -1.53106,0 -2.86456,1.037167 -1.28411,0.987778 -2.51883,2.765778 -1.23472,1.778001 -2.61761,4.198057 z"
           id="path12936" />
        <path
           d="m 232.36665,59.083656 q -3.30906,0 -5.03767,-1.778 -1.67922,-1.778 -1.67922,-5.334001 0,-2.815168 0.93839,-5.334002 0.98777,-2.568222 2.61761,-4.543778 1.62983,-1.975557 3.75356,-3.111501 2.12372,-1.135945 4.39561,-1.135945 2.81516,0 4.19805,1.086556 1.43228,1.086556 1.43228,3.259667 0,0.938389 -0.39511,1.876779 -0.34572,0.889 -1.13594,1.778 -0.74084,0.889 -1.92617,1.778 -1.13595,0.839612 -2.667,1.728612 -0.93839,0.543278 -2.32128,1.234722 -1.3335,0.691445 -2.96333,1.481667 -1.62984,0.790223 -3.35845,1.580445 l 0.74083,-4.593167 q 0.54328,-0.296334 1.48167,-0.790223 0.98778,-0.543278 2.02495,-1.135945 1.08655,-0.592666 1.87677,-1.037167 1.67923,-0.987778 2.51884,-1.827389 0.83961,-0.889 0.83961,-1.432278 0,-0.246944 -0.14817,-0.395111 -0.0988,-0.148167 -0.34572,-0.148167 -1.62983,0 -2.96333,1.284112 -1.28411,1.234722 -2.07434,3.407834 -0.74083,2.173111 -0.74083,4.93889 0,1.086556 0.34572,1.629834 0.39511,0.543277 1.03717,0.543277 0.93839,0 1.87678,-0.4445 0.93839,-0.4445 1.62983,-1.284111 0.93839,-1.086556 1.97556,-1.382889 1.08655,-0.296334 1.97555,0.345722 0.64206,0.493889 0.889,1.580445 0.29634,1.086556 -0.83961,2.518834 -1.38289,1.679222 -3.50661,2.667 -2.12372,0.987778 -4.445,0.987778 z"
           id="path12938" />
      </g>
      <g
         aria-label="Commerce"
         id="text4326-7"
         style="font-weight:bold;font-size:49.3889px;line-height:1.25;font-family:'Edu VIC WA NT Beginner';-inkscape-font-specification:'Edu VIC WA NT Beginner Bold';fill:#ecf0f1;stroke-width:0.264583">
        <path
           d="m 160.25152,111.3671 q -3.06211,0 -5.48217,-1.3335 -2.37067,-1.3335 -3.90172,-3.75355 -1.48167,-2.42006 -1.97556,-5.67973 -0.49389,-3.259664 0.14817,-7.111998 0.69144,-4.04989 1.87678,-7.260169 1.18533,-3.259667 2.81516,-5.679723 1.67923,-2.420057 3.75356,-4.04989 2.12372,-1.629834 4.69195,-2.420056 2.56822,-0.839612 5.58094,-0.839612 2.76578,0 5.18584,0.839612 2.46944,0.790222 4.79072,2.913945 1.13594,0.987778 1.48167,2.2225 0.39511,1.185334 -0.59267,2.173112 -0.93839,0.938389 -2.17311,0.691444 -1.23472,-0.296333 -2.32128,-1.234722 -1.38289,-1.284112 -2.91394,-1.778001 -1.48167,-0.543277 -3.50662,-0.543277 -2.02494,0 -3.80294,0.592666 -1.72861,0.592667 -3.16089,1.82739 -1.43228,1.185333 -2.56822,3.012723 -1.13595,1.778 -1.97556,4.198056 -0.79022,2.370667 -1.28411,5.38339 -0.59267,3.60539 -0.14817,6.46995 0.49389,2.81516 1.92617,4.445 1.43228,1.62983 3.60539,1.62983 2.51883,0 4.98828,-1.13594 2.46944,-1.18534 4.29683,-3.21028 1.03717,-1.13595 1.92617,-1.48167 0.889,-0.39511 1.58044,-0.39511 1.13595,0 1.72861,0.59267 0.64206,0.59266 0.64206,1.43227 0,0.79023 -0.4445,1.53106 -0.4445,0.74083 -1.58044,1.92617 -2.56823,2.81517 -6.12423,4.445 -3.50661,1.58044 -7.06261,1.58044 z"
           id="path12959" />
        <path
           d="m 187.26729,111.61405 q -3.21028,0 -5.08706,-2.46945 -1.82739,-2.51883 -1.82739,-6.71689 0,-3.704165 1.18534,-6.420555 1.18533,-2.716389 3.30905,-4.148667 2.17312,-1.481667 5.13645,-1.481667 3.50661,0 5.48217,2.123722 1.97555,2.123723 1.97555,5.827891 0,2.617616 -0.83961,5.037666 -0.83961,2.37067 -2.27189,4.24745 -1.38289,1.82739 -3.21027,2.91394 -1.82739,1.08656 -3.85234,1.08656 z m 0.54328,-5.13645 q 1.08655,0 2.02494,-1.13594 0.93839,-1.13595 1.53106,-3.01273 0.59267,-1.87677 0.59267,-4.049885 0,-1.3335 -0.64206,-2.074334 -0.64205,-0.740833 -1.72861,-0.740833 -1.18533,0 -2.07433,0.889 -0.889,0.839611 -1.38289,2.420056 -0.49389,1.580446 -0.49389,3.802946 0,1.82739 0.59266,2.86456 0.59267,1.03716 1.58045,1.03716 z"
           id="path12961" />
        <path
           d="m 202.92354,111.3671 q -1.48167,0 -2.02495,-0.74083 -0.54328,-0.79022 -0.39511,-1.82739 l 2.76578,-15.508114 q 0.0988,-0.345722 0.39511,-0.938389 0.29633,-0.592667 0.98778,-1.037167 0.74083,-0.493889 1.97555,-0.493889 1.43228,0 2.07434,0.790222 0.69144,0.740834 0.4445,2.024945 l -2.76578,15.557502 q -0.0988,0.64206 -0.98778,1.43228 -0.83961,0.74083 -2.46944,0.74083 z m 12.24844,0 q -1.38289,0 -2.07433,-0.889 -0.69145,-0.93839 -0.49389,-1.97555 l 1.62983,-9.334505 q 0.24695,-1.234722 0.14817,-2.074334 -0.0988,-0.839611 -0.4445,-1.234722 -0.34572,-0.4445 -0.93839,-0.4445 -1.08655,0 -2.56822,2.173111 -1.43228,2.173112 -3.45722,5.7785 l 1.23472,-7.704667 q 1.67922,-2.321278 3.21028,-3.802945 1.58044,-1.481667 3.60539,-1.481667 2.2225,0 3.50661,1.086556 1.3335,1.086555 1.72861,3.259667 0.39511,2.123723 -0.19756,5.334006 l -1.62983,9.3345 q -0.14817,0.64205 -0.93839,1.3335 -0.74083,0.64205 -2.32128,0.64205 z m 12.05089,0 q -1.38288,0 -2.07433,-0.889 -0.69144,-0.93839 -0.49389,-1.97555 l 1.62984,-9.334505 q 0.19755,-1.234722 0.0988,-2.074334 -0.0494,-0.839611 -0.39511,-1.234722 -0.34572,-0.4445 -0.93839,-0.4445 -1.13594,0 -2.56822,2.173111 -1.43228,2.173112 -3.45722,5.7785 l 1.23472,-7.704667 q 1.67922,-2.321278 3.21028,-3.802945 1.58044,-1.481667 3.556,-1.481667 2.27189,0 3.556,1.086556 1.3335,1.086555 1.67922,3.259667 0.39511,2.123723 -0.14816,5.334006 l -1.67923,9.3345 q -0.0988,0.64205 -0.889,1.3335 -0.74083,0.64205 -2.32128,0.64205 z"
           id="path12963" />
        <path
           d="m 238.23661,111.3671 q -1.48167,0 -2.02494,-0.74083 -0.54328,-0.79022 -0.39511,-1.82739 l 2.76577,-15.508114 q 0.0988,-0.345722 0.39511,-0.938389 0.29634,-0.592667 0.98778,-1.037167 0.74084,-0.493889 1.97556,-0.493889 1.43228,0 2.07433,0.790222 0.69145,0.740834 0.4445,2.024945 l -2.76578,15.557502 q -0.0988,0.64206 -0.98777,1.43228 -0.83961,0.74083 -2.46945,0.74083 z m 12.24845,0 q -1.38289,0 -2.07433,-0.889 -0.69145,-0.93839 -0.49389,-1.97555 l 1.62983,-9.334505 q 0.24694,-1.234722 0.14817,-2.074334 -0.0988,-0.839611 -0.4445,-1.234722 -0.34573,-0.4445 -0.93839,-0.4445 -1.08656,0 -2.56823,2.173111 -1.43227,2.173112 -3.45722,5.7785 l 1.23472,-7.704667 q 1.67923,-2.321278 3.21028,-3.802945 1.58045,-1.481667 3.60539,-1.481667 2.2225,0 3.50661,1.086556 1.3335,1.086555 1.72862,3.259667 0.39511,2.123723 -0.19756,5.334006 l -1.62983,9.3345 q -0.14817,0.64205 -0.93839,1.3335 -0.74084,0.64205 -2.32128,0.64205 z m 12.05089,0 q -1.38289,0 -2.07433,-0.889 -0.69145,-0.93839 -0.49389,-1.97555 l 1.62983,-9.334505 q 0.19756,-1.234722 0.0988,-2.074334 -0.0494,-0.839611 -0.39511,-1.234722 -0.34572,-0.4445 -0.93839,-0.4445 -1.13595,0 -2.56822,2.173111 -1.43228,2.173112 -3.45723,5.7785 l 1.23473,-7.704667 q 1.67922,-2.321278 3.21027,-3.802945 1.58045,-1.481667 3.55601,-1.481667 2.27188,0 3.556,1.086556 1.3335,1.086555 1.67922,3.259667 0.39511,2.123723 -0.14817,5.334006 l -1.67922,9.3345 q -0.0988,0.64205 -0.889,1.3335 -0.74083,0.64205 -2.32128,0.64205 z"
           id="path12965" />
        <path
           d="m 278.29101,111.61405 q -3.30906,0 -5.03767,-1.778 -1.67922,-1.778 -1.67922,-5.334 0,-2.81517 0.93839,-5.334005 0.98778,-2.568223 2.61761,-4.543779 1.62983,-1.975556 3.75356,-3.111501 2.12372,-1.135944 4.39561,-1.135944 2.81517,0 4.19806,1.086556 1.43227,1.086555 1.43227,3.259667 0,0.938389 -0.39511,1.876778 -0.34572,0.889 -1.13594,1.778001 -0.74084,0.889 -1.92617,1.777997 -1.13594,0.83961 -2.667,1.72861 -0.93839,0.54328 -2.32128,1.23473 -1.3335,0.69144 -2.96333,1.48166 -1.62984,0.79023 -3.35845,1.58045 l 0.74084,-4.59317 q 0.54327,-0.29633 1.48166,-0.79022 0.98778,-0.54328 2.02495,-1.135946 1.08655,-0.592667 1.87678,-1.037167 1.67922,-0.987778 2.51883,-1.827389 0.83961,-0.889 0.83961,-1.432278 0,-0.246945 -0.14816,-0.395111 -0.0988,-0.148167 -0.34573,-0.148167 -1.62983,0 -2.96333,1.284111 -1.28411,1.234723 -2.07434,3.407834 -0.74083,2.173113 -0.74083,4.938893 0,1.08655 0.34572,1.62983 0.39511,0.54328 1.03717,0.54328 0.93839,0 1.87678,-0.4445 0.93839,-0.4445 1.62983,-1.28411 0.93839,-1.08656 1.97556,-1.38289 1.08655,-0.29634 1.97555,0.34572 0.64206,0.49389 0.889,1.58045 0.29634,1.08655 -0.83961,2.51883 -1.38289,1.67922 -3.50661,2.667 -2.12372,0.98778 -4.445,0.98778 z"
           id="path12967" />
        <path
           d="m 294.0461,111.3671 q -1.13595,0 -2.02495,-0.74083 -0.889,-0.74083 -0.69144,-2.07433 l 2.71639,-15.310563 q 0.24694,-1.185334 1.18533,-1.778 0.98778,-0.642056 1.92617,-0.642056 1.13594,0 2.02494,0.839611 0.93839,0.839611 0.69145,2.27189 l -2.667,15.014228 q -0.19756,1.18533 -1.18534,1.82739 -0.98777,0.59266 -1.97555,0.59266 z m 2.17311,-4.59316 0.93839,-7.309562 q 0.93839,-2.123722 2.17311,-4.198056 1.28411,-2.123723 2.56822,-3.506612 1.3335,-1.382889 2.42006,-1.382889 0.98778,0 1.38289,0.345722 0.39511,0.345722 0.64205,0.740834 0.29634,0.345722 0.83962,0.345722 0.59266,0 1.18533,-0.395111 0.64205,-0.395112 0.93839,-0.592667 0.59267,-0.395111 1.53105,-0.395111 0.93839,-0.04939 1.67923,0.493889 0.74083,0.493889 0.74083,1.778 0,1.3335 -0.889,1.926167 -0.889,0.543278 -1.58044,0.938389 -0.79023,0.4445 -1.92617,0.987778 -1.13595,0.493889 -1.82739,0.493889 -0.83961,0 -1.53106,-0.296333 -0.64205,-0.296333 -1.18533,-0.592667 -0.54328,-0.296333 -1.03717,-0.296333 -0.4445,0 -1.38289,1.086556 -0.93839,1.086555 -2.37066,3.506615 -1.43228,2.37066 -3.30906,6.32178 z"
           id="path12969" />
        <path
           d="m 320.12341,111.61405 q -3.1115,0 -4.69194,-1.92617 -1.58045,-1.97556 -1.18534,-5.38339 0.49389,-4.29683 1.97556,-7.408334 1.53105,-3.16089 3.90172,-4.840113 2.37067,-1.679222 5.334,-1.679222 1.58045,0 2.76578,0.197555 1.18533,0.148167 2.12372,0.543278 0.39512,0.148167 0.889,0.543278 0.49389,0.395111 0.69145,1.086556 0.24694,0.691445 -0.24695,1.728612 -0.49388,0.987778 -1.38288,1.382889 -0.88901,0.345722 -1.92617,-0.04939 -0.79022,-0.345722 -1.53106,-0.493889 -0.69144,-0.148167 -1.38289,-0.148167 -1.48166,0 -2.71639,1.135945 -1.18533,1.086556 -1.97555,3.160889 -0.79023,2.074333 -1.13595,4.988283 -0.0494,0.93839 0.19756,1.48166 0.29633,0.54328 0.889,0.54328 0.98778,0 2.2225,-1.23472 1.28411,-1.28411 2.42005,-3.50661 0.34573,-0.69145 1.33351,-0.83961 1.03716,-0.19756 2.17311,0.39511 1.13594,0.54328 1.28411,1.53105 0.19755,0.93839 -0.0494,1.43228 -1.82739,3.40784 -4.54378,5.38339 -2.667,1.97556 -5.43278,1.97556 z"
           id="path12971" />
        <path
           d="m 341.21249,111.61405 q -3.30906,0 -5.03767,-1.778 -1.67922,-1.778 -1.67922,-5.334 0,-2.81517 0.93839,-5.334005 0.98778,-2.568223 2.61761,-4.543779 1.62983,-1.975556 3.75356,-3.111501 2.12372,-1.135944 4.39561,-1.135944 2.81517,0 4.19805,1.086556 1.43228,1.086555 1.43228,3.259667 0,0.938389 -0.39511,1.876778 -0.34572,0.889 -1.13594,1.778001 -0.74084,0.889 -1.92617,1.777997 -1.13595,0.83961 -2.667,1.72861 -0.93839,0.54328 -2.32128,1.23473 -1.3335,0.69144 -2.96333,1.48166 -1.62984,0.79023 -3.35845,1.58045 l 0.74083,-4.59317 q 0.54328,-0.29633 1.48167,-0.79022 0.98778,-0.54328 2.02495,-1.135946 1.08655,-0.592667 1.87677,-1.037167 1.67923,-0.987778 2.51884,-1.827389 0.83961,-0.889 0.83961,-1.432278 0,-0.246945 -0.14817,-0.395111 -0.0988,-0.148167 -0.34572,-0.148167 -1.62983,0 -2.96333,1.284111 -1.28411,1.234723 -2.07434,3.407834 -0.74083,2.173113 -0.74083,4.938893 0,1.08655 0.34572,1.62983 0.39511,0.54328 1.03717,0.54328 0.93839,0 1.87678,-0.4445 0.93839,-0.4445 1.62983,-1.28411 0.93839,-1.08656 1.97556,-1.38289 1.08655,-0.29634 1.97555,0.34572 0.64206,0.49389 0.889,1.58045 0.29634,1.08655 -0.83961,2.51883 -1.38289,1.67922 -3.50661,2.667 -2.12372,0.98778 -4.445,0.98778 z"
           id="path12973" />
      </g>
    </g>
  </g>
</svg>
